<svg width="272" height="181" viewBox="0 0 272 181" fill="none" xmlns="http://www.w3.org/2000/svg">
<path d="M155.077 176.718C172.1 181.921 190.284 181.96 207.328 176.829C224.373 171.699 239.514 161.629 250.836 147.893C262.158 134.158 269.152 117.373 270.935 99.6622C272.717 81.9514 269.208 64.1097 260.85 48.3933C252.493 32.6769 239.663 19.7917 223.982 11.3672C208.302 2.94263 190.475 -0.642928 172.757 1.06393C155.039 2.7708 138.224 9.69341 124.44 20.9564C110.657 32.2193 100.522 47.3168 95.3184 64.3395L156.108 82.9218C157.636 77.922 160.613 73.4877 164.661 70.1797C168.71 66.8716 173.648 64.8384 178.852 64.337C184.056 63.8357 189.292 64.8888 193.898 67.3632C198.503 69.8376 202.272 73.6221 204.726 78.2382C207.181 82.8543 208.212 88.0946 207.688 93.2964C207.165 98.4983 205.11 103.428 201.785 107.462C198.46 111.497 194.013 114.454 189.006 115.961C184 117.468 178.659 117.457 173.66 115.928L155.077 176.718Z" fill="#ED6262"/>
<path d="M176.452 116.805C171.247 133.827 161.111 148.924 147.326 160.185C133.541 171.447 116.726 178.368 99.008 180.074C81.2895 181.779 63.4633 178.192 47.7835 169.766C32.1038 161.34 19.2747 148.454 10.9187 132.736C2.5626 117.019 -0.945137 99.1774 0.83902 81.4667C2.62318 63.756 9.61909 46.9721 20.9421 33.2375C32.2651 19.5028 47.4066 9.43423 64.4519 4.30499C81.4972 -0.824249 99.6807 -0.783781 116.703 4.42128L98.1154 65.2089C93.1158 63.6802 87.7751 63.6683 82.7687 65.1748C77.7623 66.6813 73.3151 69.6385 69.9894 73.6726C66.6637 77.7066 64.609 82.6362 64.0849 87.838C63.5609 93.0398 64.5912 98.2802 67.0454 102.897C69.4997 107.513 73.2677 111.298 77.873 113.772C82.4784 116.247 87.7141 117.301 92.9182 116.8C98.1223 116.299 103.061 114.266 107.11 110.959C111.159 107.651 114.136 103.217 115.664 98.2172L176.452 116.805Z" fill="#ED6262"/>
</svg>
